<svg width="50" height="50" viewBox="0 0 50 50" fill="none" xmlns="http://www.w3.org/2000/svg">
<path d="M11.4583 14.5833H34.375C34.9508 14.5833 35.4167 14.1174 35.4167 13.5416C35.4167 12.9658 34.9508 12.4999 34.375 12.4999H11.4583C10.8825 12.4999 10.4166 12.9658 10.4166 13.5416C10.4167 14.1175 10.8826 14.5833 11.4583 14.5833Z" fill="white"/>
<path d="M23.9583 25H11.4583C10.8825 25 10.4166 25.4659 10.4166 26.0417C10.4166 26.6175 10.8825 27.0834 11.4583 27.0834H23.9583C24.5341 27.0834 25 26.6175 25 26.0417C25 25.4659 24.5341 25 23.9583 25Z" fill="white"/>
<path d="M46.0124 6.24995C45.952 6.24995 45.8936 6.26509 45.8334 6.26792V6.24995C45.8334 3.952 43.9637 2.08325 41.6667 2.08325H4.1667C1.86973 2.08325 0 3.952 0 6.24995V46.875C0 47.2961 0.254297 47.6765 0.642871 47.8373C0.771094 47.8912 0.907324 47.9166 1.0416 47.9166C1.31221 47.9166 1.57871 47.8109 1.77813 47.6115L11.8896 37.5H41.6667C43.9637 37.5 45.8334 35.6313 45.8334 33.3333V16.0557L48.8322 13.0574C48.8322 13.0574 48.8322 13.0574 48.8322 13.0564C49.5748 12.3138 50 11.2864 50 10.2375C50 8.03833 48.2117 6.24995 46.0124 6.24995ZM43.75 33.3333C43.75 34.4817 42.8161 35.4165 41.6667 35.4165H11.4583C11.1816 35.4165 10.9171 35.5264 10.7218 35.7217L2.0833 44.3603V6.24995C2.0833 5.10151 3.01719 4.16665 4.1666 4.16665H41.6666C42.8162 4.16665 43.75 5.10151 43.75 6.24995V6.96147C43.5522 7.09741 43.3631 7.24692 43.1926 7.41772L31.8586 18.75H11.4583C10.8825 18.75 10.4166 19.2159 10.4166 19.7917C10.4166 20.3674 10.8825 20.8334 11.4583 20.8334H30.1873L29.187 25.8373C29.1179 26.1791 29.2257 26.5321 29.4719 26.7782C29.6692 26.9755 29.9357 27.0834 30.2084 27.0834C30.2756 27.0834 30.3447 27.0762 30.4118 27.063L35.6182 26.0213C35.8216 25.9806 36.0067 25.882 36.1512 25.7365L43.75 18.1388V33.3333ZM34.902 24.0407L31.5369 24.7141L32.2104 21.345L41.6662 11.8891L44.3603 14.5832L34.902 24.0407ZM47.3592 11.5844L45.8333 13.1103L43.1391 10.4161L44.6654 8.8897C45.0194 8.53667 45.5098 8.33325 46.0123 8.33325C47.0621 8.33325 47.9166 9.18774 47.9166 10.2375C47.9167 10.738 47.7132 11.2294 47.3592 11.5844Z" fill="white"/>
</svg>
