<svg width="26" height="23" viewBox="0 0 26 23" fill="none" xmlns="http://www.w3.org/2000/svg">
<path d="M25.4113 21.3038L23.2638 17.7263C22.2738 16.0751 21.75 14.1851 21.75 12.2588V9.12501C21.75 4.30128 17.8238 0.375031 13.0001 0.375031C8.17633 0.375031 4.25008 4.30128 4.25008 9.12501V12.2588C4.25008 14.1851 3.72631 16.0751 2.73631 17.7263L0.588788 21.3038C0.472538 21.4963 0.470018 21.7376 0.580057 21.9326C0.691327 22.1288 0.900038 22.2501 1.12504 22.2501H24.875C25.1 22.2501 25.3088 22.1288 25.42 21.9326C25.53 21.7375 25.5276 21.4963 25.4113 21.3038ZM2.22883 21L3.80758 18.3688C4.91506 16.5238 5.50006 14.4113 5.50006 12.2588V9.12501C5.50006 4.98876 8.86381 1.62501 13.0001 1.62501C17.1363 1.62501 20.5001 4.98876 20.5001 9.12501V12.2588C20.5001 14.4113 21.0851 16.5238 22.1913 18.3688L23.7713 21H2.22883Z" fill="#015B70"/>
</svg>
