<svg width="30" height="30" viewBox="0 0 30 30" fill="none" xmlns="http://www.w3.org/2000/svg">
<path d="M15 0C6.72913 0 0 6.72913 0 15C0 23.2709 6.72913 30 15 30C23.2715 30 30 23.2709 30 15C30 6.72913 23.2715 0 15 0ZM15 28.6957C7.44783 28.6957 1.30435 22.5522 1.30435 15C1.30435 7.44783 7.44783 1.30435 15 1.30435C22.5515 1.30435 28.6957 7.44783 28.6957 15C28.6957 22.5522 22.5515 28.6957 15 28.6957Z" fill="#015B70"/>
<path d="M11.7391 12.3913C11.7391 11.3126 10.8613 10.4348 9.78257 10.4348C8.70388 10.4348 7.82605 11.3126 7.82605 12.3913C7.82605 13.47 8.70388 14.3478 9.78257 14.3478C10.8613 14.3478 11.7391 13.47 11.7391 12.3913ZM9.1304 12.3913C9.1304 12.0319 9.42322 11.7391 9.78257 11.7391C10.1419 11.7391 10.4347 12.0319 10.4347 12.3913C10.4347 12.7506 10.1419 13.0434 9.78257 13.0434C9.42322 13.0434 9.1304 12.7506 9.1304 12.3913Z" fill="#015B70"/>
<path d="M20.2174 10.4348C19.1387 10.4348 18.2609 11.3126 18.2609 12.3913C18.2609 13.47 19.1387 14.3478 20.2174 14.3478C21.2961 14.3478 22.1739 13.47 22.1739 12.3913C22.1739 11.3126 21.2961 10.4348 20.2174 10.4348ZM20.2174 13.0434C19.8574 13.0434 19.5652 12.7506 19.5652 12.3913C19.5652 12.0319 19.8574 11.7391 20.2174 11.7391C20.5774 11.7391 20.8696 12.0319 20.8696 12.3913C20.8696 12.7506 20.5774 13.0434 20.2174 13.0434Z" fill="#015B70"/>
<path d="M15 18.2609C12.5687 18.2609 10.2522 19.2906 8.6446 21.0867C8.4046 21.3554 8.42742 21.7676 8.69547 22.0076C8.96416 22.2482 9.37634 22.2248 9.61634 21.9567C10.9768 20.4365 12.9392 19.5652 15 19.5652C17.0609 19.5652 19.0233 20.4365 20.3837 21.9567C20.5122 22.1009 20.6909 22.1739 20.8696 22.1739C21.0242 22.1739 21.1807 22.1191 21.3046 22.0076C21.5726 21.7676 21.5955 21.3554 21.3555 21.0867C19.7479 19.2913 17.432 18.2609 15 18.2609Z" fill="#015B70"/>
</svg>
