<svg width="25" height="25" viewBox="0 0 25 25" fill="none" xmlns="http://www.w3.org/2000/svg">
<rect width="25" height="25" fill="#E5E5E5"/>
<path d="M15.1367 9.27734C14.8672 9.27734 14.6484 9.49609 14.6484 9.76562C14.6484 10.0352 14.8672 10.2539 15.1367 10.2539C15.4062 10.2539 15.625 10.0352 15.625 9.76562C15.625 9.49609 15.4062 9.27734 15.1367 9.27734Z" fill="#015B70"/>
<path d="M24.4278 21.666L17.9102 15.1484C18.972 13.5491 19.5312 11.697 19.5312 9.76562C19.5312 4.38086 15.1504 0 9.76562 0C4.38086 0 0 4.38086 0 9.76562C0 15.1504 4.38086 19.5312 9.76562 19.5312C11.6971 19.5312 13.5491 18.9719 15.1484 17.9103L16.9499 19.7118C16.9501 19.712 16.9504 19.7123 16.9507 19.7125L21.6659 24.4278C22.035 24.7968 22.5253 25 23.0469 25C23.5684 25 24.0588 24.7968 24.4276 24.4279C24.7967 24.0591 25 23.5687 25 23.0469C25 22.525 24.7967 22.0346 24.4278 21.666ZM14.9188 16.8812C14.9188 16.8813 14.9187 16.8813 14.9187 16.8813C13.4115 17.976 11.6296 18.5547 9.76562 18.5547C4.91934 18.5547 0.976562 14.6119 0.976562 9.76562C0.976562 4.91934 4.91934 0.976562 9.76562 0.976562C14.6119 0.976562 18.5547 4.91934 18.5547 9.76562C18.5547 11.6296 17.976 13.4115 16.8813 14.9187C16.3335 15.6732 15.6733 16.3335 14.9188 16.8812ZM15.9432 17.3239C16.4485 16.9104 16.9105 16.4485 17.3239 15.9432L18.7092 17.3285C18.2879 17.8257 17.8257 18.2879 17.3285 18.7092L15.9432 17.3239ZM23.7373 23.7373C23.5527 23.9218 23.3075 24.0234 23.0469 24.0234C22.7862 24.0234 22.5411 23.9218 22.3565 23.7373L18.0208 19.4016C18.5153 18.9772 18.9772 18.5153 19.4015 18.0208L23.7374 22.3567C23.9218 22.541 24.0234 22.786 24.0234 23.0469C24.0234 23.3077 23.9218 23.5528 23.7373 23.7373Z" fill="#015B70"/>
<path d="M9.76562 1.95312C5.45776 1.95312 1.95312 5.45776 1.95312 9.76562C1.95312 14.0735 5.45776 17.5781 9.76562 17.5781C14.0735 17.5781 17.5781 14.0735 17.5781 9.76562C17.5781 5.45776 14.0735 1.95312 9.76562 1.95312ZM9.76562 16.6016C5.99629 16.6016 2.92969 13.535 2.92969 9.76562C2.92969 5.99629 5.99629 2.92969 9.76562 2.92969C13.535 2.92969 16.6016 5.99629 16.6016 9.76562C16.6016 13.535 13.535 16.6016 9.76562 16.6016Z" fill="#015B70"/>
<path d="M15.2376 7.66958C14.8171 6.57524 14.085 5.6396 13.1204 4.96387C12.1328 4.27197 10.9727 3.90625 9.76563 3.90625C9.496 3.90625 9.27734 4.1249 9.27734 4.39453C9.27734 4.66416 9.496 4.88281 9.76563 4.88281C11.7724 4.88281 13.605 6.14346 14.326 8.01987C14.4006 8.21401 14.5856 8.33315 14.7819 8.33315C14.8401 8.33315 14.8993 8.32266 14.9569 8.30054C15.2086 8.20381 15.3343 7.92134 15.2376 7.66958Z" fill="#015B70"/>
</svg>
