<svg width="8" height="5" viewBox="0 0 8 5" fill="none" xmlns="http://www.w3.org/2000/svg">
<path d="M6.70501 0.308758C6.52876 0.0112775 6.14749 -0.0862225 5.84878 0.0849884C5.55001 0.260008 5.45005 0.643739 5.62501 0.941219C5.78749 1.21749 5.87626 1.54872 5.87626 1.87497C5.87626 2.90874 5.03503 3.74997 4.00126 3.74997C2.96749 3.74997 2.12627 2.90874 2.12627 1.87497C2.12627 1.54872 2.21504 1.21749 2.37752 0.941219C2.55125 0.64245 2.45129 0.259949 2.15375 0.0849884C1.85252 -0.0862811 1.47248 0.0112189 1.29752 0.308758C1.02125 0.781258 0.875 1.32249 0.875 1.87503C0.875059 3.59874 2.27627 5.00001 4.00003 5.00001C5.7238 5.00001 7.12501 3.59874 7.12753 1.87503C7.12753 1.32249 6.98128 0.781258 6.70501 0.308758Z" fill="#015B70"/>
</svg>
